<svg xmlns="http://www.w3.org/2000/svg" width="1405" height="754" viewBox="0 0 1405 754">
    <defs>
        <linearGradient id="a" x1="78.811%" x2="39.007%" y1="-16.642%" y2="70.064%">
            <stop offset="0%" stop-color="#A9D6FA" stop-opacity=".623"/>
            <stop offset="100%" stop-color="#CBE5FB" stop-opacity=".118"/>
        </linearGradient>
    </defs>
    <path fill="url(#a)" fill-opacity=".6" fill-rule="evenodd" d="M52.167 352.931l125.085-216.678 24.458-15.12 26.3 78.992 26.788-43.973 43.444 2.366 52.616-69.48 68.617 65.306 42.903 19.134 48.46-44.602 60.289 153.364 23.791 13.83 53.878-89.174 20.758 52.505 40.148 16.76 31.572 165.242 46.58 62.096 15.86 27.125 48.253-198.373 16.298 38.835 27.335-38.835 44.76-11.423 33.152-25.245 66.38-99.043 36.919-22.464 32.49 28.742 25.866-157.228L1167.29 0l48.407 180.305 54.527-47.836 54.55 74.332 63.12 124.534L1522 395.463v371.283H0V322.782z"/>
</svg>
