<svg xmlns="http://www.w3.org/2000/svg" width="463" height="171" viewBox="0 0 463 171">
    <defs>
        <linearGradient id="a" x1="-3.356%" y1="39.801%" y2="93.567%">
            <stop offset="0%" stop-color="#67EEFA" stop-opacity="0"/>
            <stop offset="100%" stop-color="#1C8EF7"/>
        </linearGradient>
    </defs>
    <g fill="none" fill-rule="evenodd" transform="matrix(1 0 0 -1 1 168)">
        <path stroke="url(#a)" stroke-width="2" d="M0 109.977l38.944-67.52 7.615-4.71 8.189 24.614 8.34-13.702 13.526.737 16.381-21.651 21.364 20.35 13.357 5.963 15.088-13.899 18.77 47.79 7.407 4.31 16.775-27.788 6.463 16.361 12.5 5.223 9.83 51.49 14.502 19.35 4.938 8.453 15.023-61.815 5.074 12.101 8.51-12.101 13.936-3.56 10.322-7.866 20.667-30.863 11.494-7 10.116 8.956 8.053-48.994L347.185 0l15.071 56.185 16.977-14.906 16.984 23.162 19.652 38.806 41.753 19.983" opacity=".376"/>
        <rect width="6" height="6" x="455.5" y="120.5" fill="#F0F3F5" stroke="#629AFF" rx="3"/>
    </g>
</svg>
